<mxfile host="app.diagrams.net" agent="Mozilla/5.0 (Windows NT 10.0; Win64; x64) AppleWebKit/537.36 (KHTML, like Gecko) Chrome/135.0.0.0 Safari/537.36" version="26.2.9">
  <diagram name="第 1 页" id="76SO9O9yr07jMs2---yx">
    <mxGraphModel dx="985" dy="518" grid="1" gridSize="10" guides="1" tooltips="1" connect="1" arrows="1" fold="1" page="1" pageScale="1" pageWidth="827" pageHeight="1169" math="0" shadow="0">
      <root>
        <mxCell id="0" />
        <mxCell id="1" parent="0" />
        <mxCell id="89t6GWdF_3kPurugmedB-18" style="edgeStyle=orthogonalEdgeStyle;rounded=0;orthogonalLoop=1;jettySize=auto;html=1;exitX=0.5;exitY=1;exitDx=0;exitDy=0;" edge="1" parent="1" source="89t6GWdF_3kPurugmedB-1" target="89t6GWdF_3kPurugmedB-12">
          <mxGeometry relative="1" as="geometry" />
        </mxCell>
        <mxCell id="89t6GWdF_3kPurugmedB-1" value="用户进入ChatController" style="rounded=0;whiteSpace=wrap;html=1;" vertex="1" parent="1">
          <mxGeometry x="324" y="50" width="146" height="40" as="geometry" />
        </mxCell>
        <mxCell id="89t6GWdF_3kPurugmedB-24" style="edgeStyle=orthogonalEdgeStyle;rounded=0;orthogonalLoop=1;jettySize=auto;html=1;exitX=0.5;exitY=1;exitDx=0;exitDy=0;entryX=0.5;entryY=0;entryDx=0;entryDy=0;" edge="1" parent="1" source="89t6GWdF_3kPurugmedB-12" target="89t6GWdF_3kPurugmedB-21">
          <mxGeometry relative="1" as="geometry" />
        </mxCell>
        <mxCell id="89t6GWdF_3kPurugmedB-12" value="&lt;div&gt;进入add方法&lt;/div&gt;接收一条消息" style="rounded=0;whiteSpace=wrap;html=1;" vertex="1" parent="1">
          <mxGeometry x="324" y="110" width="146" height="40" as="geometry" />
        </mxCell>
        <mxCell id="89t6GWdF_3kPurugmedB-50" style="edgeStyle=orthogonalEdgeStyle;rounded=0;orthogonalLoop=1;jettySize=auto;html=1;entryX=1;entryY=0.5;entryDx=0;entryDy=0;exitX=0.5;exitY=1;exitDx=0;exitDy=0;" edge="1" parent="1" source="89t6GWdF_3kPurugmedB-13" target="89t6GWdF_3kPurugmedB-15">
          <mxGeometry relative="1" as="geometry" />
        </mxCell>
        <mxCell id="89t6GWdF_3kPurugmedB-13" value="聊天记录都变为已回复chatService.updateForSet" style="rounded=0;whiteSpace=wrap;html=1;" vertex="1" parent="1">
          <mxGeometry x="530" y="290" width="146" height="40" as="geometry" />
        </mxCell>
        <mxCell id="89t6GWdF_3kPurugmedB-14" value="页面显示最新消息" style="rounded=0;whiteSpace=wrap;html=1;" vertex="1" parent="1">
          <mxGeometry x="324" y="460" width="146" height="40" as="geometry" />
        </mxCell>
        <mxCell id="89t6GWdF_3kPurugmedB-15" value="进入page方法 chatService.queryPage" style="rounded=0;whiteSpace=wrap;html=1;" vertex="1" parent="1">
          <mxGeometry x="324" y="400" width="146" height="40" as="geometry" />
        </mxCell>
        <mxCell id="89t6GWdF_3kPurugmedB-49" style="edgeStyle=orthogonalEdgeStyle;rounded=0;orthogonalLoop=1;jettySize=auto;html=1;exitX=0.5;exitY=1;exitDx=0;exitDy=0;entryX=0;entryY=0.5;entryDx=0;entryDy=0;" edge="1" parent="1" source="89t6GWdF_3kPurugmedB-16" target="89t6GWdF_3kPurugmedB-15">
          <mxGeometry relative="1" as="geometry" />
        </mxCell>
        <mxCell id="89t6GWdF_3kPurugmedB-16" value="&lt;div&gt;更新消息状态未回复&lt;/div&gt;chatService.updateForSet" style="rounded=0;whiteSpace=wrap;html=1;" vertex="1" parent="1">
          <mxGeometry x="120" y="290" width="146" height="40" as="geometry" />
        </mxCell>
        <mxCell id="89t6GWdF_3kPurugmedB-29" style="edgeStyle=orthogonalEdgeStyle;rounded=0;orthogonalLoop=1;jettySize=auto;html=1;exitX=0.5;exitY=1;exitDx=0;exitDy=0;entryX=0.5;entryY=0;entryDx=0;entryDy=0;" edge="1" parent="1" source="89t6GWdF_3kPurugmedB-21" target="89t6GWdF_3kPurugmedB-22">
          <mxGeometry relative="1" as="geometry" />
        </mxCell>
        <mxCell id="89t6GWdF_3kPurugmedB-51" value="否" style="edgeLabel;html=1;align=center;verticalAlign=middle;resizable=0;points=[];" vertex="1" connectable="0" parent="89t6GWdF_3kPurugmedB-29">
          <mxGeometry x="-0.1241" y="1" relative="1" as="geometry">
            <mxPoint as="offset" />
          </mxGeometry>
        </mxCell>
        <mxCell id="89t6GWdF_3kPurugmedB-33" style="edgeStyle=orthogonalEdgeStyle;rounded=0;orthogonalLoop=1;jettySize=auto;html=1;exitX=0;exitY=0.5;exitDx=0;exitDy=0;entryX=0.5;entryY=0;entryDx=0;entryDy=0;" edge="1" parent="1" source="89t6GWdF_3kPurugmedB-21" target="89t6GWdF_3kPurugmedB-16">
          <mxGeometry relative="1" as="geometry" />
        </mxCell>
        <mxCell id="89t6GWdF_3kPurugmedB-36" value="是" style="edgeLabel;html=1;align=center;verticalAlign=middle;resizable=0;points=[];" vertex="1" connectable="0" parent="89t6GWdF_3kPurugmedB-33">
          <mxGeometry x="-0.3365" y="2" relative="1" as="geometry">
            <mxPoint as="offset" />
          </mxGeometry>
        </mxCell>
        <mxCell id="89t6GWdF_3kPurugmedB-21" value="&lt;div&gt;提问是否为空&lt;/div&gt;StringUtils.isNotBlank&lt;div&gt;(chat.getAsk())&lt;/div&gt;" style="rhombus;whiteSpace=wrap;html=1;" vertex="1" parent="1">
          <mxGeometry x="299" y="170" width="196" height="80" as="geometry" />
        </mxCell>
        <mxCell id="89t6GWdF_3kPurugmedB-45" style="edgeStyle=orthogonalEdgeStyle;rounded=0;orthogonalLoop=1;jettySize=auto;html=1;exitX=0.5;exitY=1;exitDx=0;exitDy=0;entryX=0.5;entryY=0;entryDx=0;entryDy=0;" edge="1" parent="1" source="89t6GWdF_3kPurugmedB-22" target="89t6GWdF_3kPurugmedB-15">
          <mxGeometry relative="1" as="geometry" />
        </mxCell>
        <mxCell id="89t6GWdF_3kPurugmedB-54" value="否" style="edgeLabel;html=1;align=center;verticalAlign=middle;resizable=0;points=[];" vertex="1" connectable="0" parent="89t6GWdF_3kPurugmedB-45">
          <mxGeometry x="-0.3517" relative="1" as="geometry">
            <mxPoint as="offset" />
          </mxGeometry>
        </mxCell>
        <mxCell id="89t6GWdF_3kPurugmedB-52" style="edgeStyle=orthogonalEdgeStyle;rounded=0;orthogonalLoop=1;jettySize=auto;html=1;exitX=1;exitY=0.5;exitDx=0;exitDy=0;entryX=0;entryY=1;entryDx=0;entryDy=0;" edge="1" parent="1" source="89t6GWdF_3kPurugmedB-22" target="89t6GWdF_3kPurugmedB-13">
          <mxGeometry relative="1" as="geometry" />
        </mxCell>
        <mxCell id="89t6GWdF_3kPurugmedB-53" value="是" style="edgeLabel;html=1;align=center;verticalAlign=middle;resizable=0;points=[];" vertex="1" connectable="0" parent="89t6GWdF_3kPurugmedB-52">
          <mxGeometry x="-0.3695" y="1" relative="1" as="geometry">
            <mxPoint as="offset" />
          </mxGeometry>
        </mxCell>
        <mxCell id="89t6GWdF_3kPurugmedB-22" value="&lt;div&gt;回复是否为空&lt;/div&gt;StringUtils.isNotBlank&lt;div&gt;(chat.getReply())&lt;/div&gt;" style="rhombus;whiteSpace=wrap;html=1;" vertex="1" parent="1">
          <mxGeometry x="299" y="290" width="196" height="80" as="geometry" />
        </mxCell>
        <mxCell id="89t6GWdF_3kPurugmedB-48" style="edgeStyle=orthogonalEdgeStyle;rounded=0;orthogonalLoop=1;jettySize=auto;html=1;exitX=0.5;exitY=1;exitDx=0;exitDy=0;entryX=0.459;entryY=0.076;entryDx=0;entryDy=0;entryPerimeter=0;" edge="1" parent="1" source="89t6GWdF_3kPurugmedB-15" target="89t6GWdF_3kPurugmedB-14">
          <mxGeometry relative="1" as="geometry" />
        </mxCell>
        <mxCell id="89t6GWdF_3kPurugmedB-57" style="edgeStyle=orthogonalEdgeStyle;rounded=0;orthogonalLoop=1;jettySize=auto;html=1;exitX=0.5;exitY=1;exitDx=0;exitDy=0;" edge="1" parent="1" source="89t6GWdF_3kPurugmedB-58" target="89t6GWdF_3kPurugmedB-60">
          <mxGeometry relative="1" as="geometry" />
        </mxCell>
        <mxCell id="89t6GWdF_3kPurugmedB-58" value="用户提问" style="rounded=0;whiteSpace=wrap;html=1;" vertex="1" parent="1">
          <mxGeometry x="1124" y="50" width="146" height="40" as="geometry" />
        </mxCell>
        <mxCell id="89t6GWdF_3kPurugmedB-78" style="edgeStyle=orthogonalEdgeStyle;rounded=0;orthogonalLoop=1;jettySize=auto;html=1;exitX=0.5;exitY=1;exitDx=0;exitDy=0;" edge="1" parent="1" source="89t6GWdF_3kPurugmedB-60" target="89t6GWdF_3kPurugmedB-62">
          <mxGeometry relative="1" as="geometry" />
        </mxCell>
        <mxCell id="89t6GWdF_3kPurugmedB-60" value="发送请求到&lt;div&gt;CommonController&lt;/div&gt;" style="rounded=0;whiteSpace=wrap;html=1;" vertex="1" parent="1">
          <mxGeometry x="1124" y="110" width="146" height="40" as="geometry" />
        </mxCell>
        <mxCell id="89t6GWdF_3kPurugmedB-88" style="edgeStyle=orthogonalEdgeStyle;rounded=0;orthogonalLoop=1;jettySize=auto;html=1;exitX=0.5;exitY=1;exitDx=0;exitDy=0;entryX=0.5;entryY=0;entryDx=0;entryDy=0;" edge="1" parent="1" source="89t6GWdF_3kPurugmedB-62" target="89t6GWdF_3kPurugmedB-66">
          <mxGeometry relative="1" as="geometry" />
        </mxCell>
        <mxCell id="89t6GWdF_3kPurugmedB-62" value="调用baiduAskai方法" style="rounded=0;whiteSpace=wrap;html=1;" vertex="1" parent="1">
          <mxGeometry x="1124" y="170" width="146" height="40" as="geometry" />
        </mxCell>
        <mxCell id="89t6GWdF_3kPurugmedB-91" style="edgeStyle=orthogonalEdgeStyle;rounded=0;orthogonalLoop=1;jettySize=auto;html=1;exitX=0.5;exitY=1;exitDx=0;exitDy=0;entryX=0.5;entryY=0;entryDx=0;entryDy=0;" edge="1" parent="1" source="89t6GWdF_3kPurugmedB-63" target="89t6GWdF_3kPurugmedB-87">
          <mxGeometry relative="1" as="geometry" />
        </mxCell>
        <mxCell id="89t6GWdF_3kPurugmedB-63" value="&lt;div&gt;进入&lt;span style=&quot;background-color: transparent; color: light-dark(rgb(0, 0, 0), rgb(255, 255, 255));&quot;&gt;ChatController&lt;/span&gt;&lt;/div&gt;&lt;div&gt;add保存回复&lt;/div&gt;" style="rounded=0;whiteSpace=wrap;html=1;" vertex="1" parent="1">
          <mxGeometry x="1124" y="370" width="146" height="40" as="geometry" />
        </mxCell>
        <mxCell id="89t6GWdF_3kPurugmedB-90" style="edgeStyle=orthogonalEdgeStyle;rounded=0;orthogonalLoop=1;jettySize=auto;html=1;exitX=0.5;exitY=1;exitDx=0;exitDy=0;entryX=0.5;entryY=0;entryDx=0;entryDy=0;" edge="1" parent="1" source="89t6GWdF_3kPurugmedB-64" target="89t6GWdF_3kPurugmedB-63">
          <mxGeometry relative="1" as="geometry" />
        </mxCell>
        <mxCell id="89t6GWdF_3kPurugmedB-64" value="返回答复" style="rounded=0;whiteSpace=wrap;html=1;" vertex="1" parent="1">
          <mxGeometry x="1124" y="310" width="146" height="40" as="geometry" />
        </mxCell>
        <mxCell id="89t6GWdF_3kPurugmedB-81" style="edgeStyle=orthogonalEdgeStyle;rounded=0;orthogonalLoop=1;jettySize=auto;html=1;exitX=1;exitY=0.25;exitDx=0;exitDy=0;entryX=0;entryY=0.25;entryDx=0;entryDy=0;" edge="1" parent="1" source="89t6GWdF_3kPurugmedB-66" target="89t6GWdF_3kPurugmedB-79">
          <mxGeometry relative="1" as="geometry" />
        </mxCell>
        <mxCell id="89t6GWdF_3kPurugmedB-84" value="提问ask" style="edgeLabel;html=1;align=center;verticalAlign=middle;resizable=0;points=[];" vertex="1" connectable="0" parent="89t6GWdF_3kPurugmedB-81">
          <mxGeometry x="-0.0843" y="2" relative="1" as="geometry">
            <mxPoint as="offset" />
          </mxGeometry>
        </mxCell>
        <mxCell id="89t6GWdF_3kPurugmedB-89" style="edgeStyle=orthogonalEdgeStyle;rounded=0;orthogonalLoop=1;jettySize=auto;html=1;exitX=0.5;exitY=1;exitDx=0;exitDy=0;entryX=0.5;entryY=0;entryDx=0;entryDy=0;" edge="1" parent="1" source="89t6GWdF_3kPurugmedB-66" target="89t6GWdF_3kPurugmedB-64">
          <mxGeometry relative="1" as="geometry" />
        </mxCell>
        <mxCell id="89t6GWdF_3kPurugmedB-66" value="&lt;div&gt;调用封装好的&lt;/div&gt;&lt;div&gt;百度PAPI调用工具类&lt;/div&gt;&lt;div&gt;BaiduUtil.qfChat(ask)&lt;/div&gt;" style="rounded=0;whiteSpace=wrap;html=1;" vertex="1" parent="1">
          <mxGeometry x="1117" y="240" width="160" height="50" as="geometry" />
        </mxCell>
        <mxCell id="89t6GWdF_3kPurugmedB-83" style="edgeStyle=orthogonalEdgeStyle;rounded=0;orthogonalLoop=1;jettySize=auto;html=1;exitX=0;exitY=0.75;exitDx=0;exitDy=0;entryX=1;entryY=0.75;entryDx=0;entryDy=0;" edge="1" parent="1" source="89t6GWdF_3kPurugmedB-79" target="89t6GWdF_3kPurugmedB-66">
          <mxGeometry relative="1" as="geometry" />
        </mxCell>
        <mxCell id="89t6GWdF_3kPurugmedB-85" value="回答res" style="edgeLabel;html=1;align=center;verticalAlign=middle;resizable=0;points=[];" vertex="1" connectable="0" parent="89t6GWdF_3kPurugmedB-83">
          <mxGeometry x="0.1342" y="1" relative="1" as="geometry">
            <mxPoint as="offset" />
          </mxGeometry>
        </mxCell>
        <mxCell id="89t6GWdF_3kPurugmedB-79" value="读取AK、SK获取token" style="rounded=0;whiteSpace=wrap;html=1;" vertex="1" parent="1">
          <mxGeometry x="1360" y="240" width="150" height="50" as="geometry" />
        </mxCell>
        <mxCell id="89t6GWdF_3kPurugmedB-87" value="页面显示回复消息" style="rounded=0;whiteSpace=wrap;html=1;" vertex="1" parent="1">
          <mxGeometry x="1124" y="430" width="146" height="40" as="geometry" />
        </mxCell>
        <mxCell id="89t6GWdF_3kPurugmedB-92" style="edgeStyle=orthogonalEdgeStyle;rounded=0;orthogonalLoop=1;jettySize=auto;html=1;exitX=0.5;exitY=1;exitDx=0;exitDy=0;" edge="1" parent="1" source="89t6GWdF_3kPurugmedB-93" target="89t6GWdF_3kPurugmedB-95">
          <mxGeometry relative="1" as="geometry" />
        </mxCell>
        <mxCell id="89t6GWdF_3kPurugmedB-93" value="用户提问" style="rounded=0;whiteSpace=wrap;html=1;" vertex="1" parent="1">
          <mxGeometry x="1147" y="700" width="146" height="40" as="geometry" />
        </mxCell>
        <mxCell id="89t6GWdF_3kPurugmedB-94" style="edgeStyle=orthogonalEdgeStyle;rounded=0;orthogonalLoop=1;jettySize=auto;html=1;exitX=0.5;exitY=1;exitDx=0;exitDy=0;" edge="1" parent="1" source="89t6GWdF_3kPurugmedB-95" target="89t6GWdF_3kPurugmedB-97">
          <mxGeometry relative="1" as="geometry" />
        </mxCell>
        <mxCell id="89t6GWdF_3kPurugmedB-95" value="发送请求到&lt;div&gt;CommonController&lt;/div&gt;" style="rounded=0;whiteSpace=wrap;html=1;" vertex="1" parent="1">
          <mxGeometry x="1147" y="760" width="146" height="40" as="geometry" />
        </mxCell>
        <mxCell id="89t6GWdF_3kPurugmedB-96" style="edgeStyle=orthogonalEdgeStyle;rounded=0;orthogonalLoop=1;jettySize=auto;html=1;exitX=0.5;exitY=1;exitDx=0;exitDy=0;entryX=0.5;entryY=0;entryDx=0;entryDy=0;" edge="1" parent="1" source="89t6GWdF_3kPurugmedB-97" target="89t6GWdF_3kPurugmedB-105">
          <mxGeometry relative="1" as="geometry" />
        </mxCell>
        <mxCell id="89t6GWdF_3kPurugmedB-97" value="调用baiduAskai方法" style="rounded=0;whiteSpace=wrap;html=1;" vertex="1" parent="1">
          <mxGeometry x="1147" y="820" width="146" height="40" as="geometry" />
        </mxCell>
        <mxCell id="89t6GWdF_3kPurugmedB-98" style="edgeStyle=orthogonalEdgeStyle;rounded=0;orthogonalLoop=1;jettySize=auto;html=1;exitX=0.5;exitY=1;exitDx=0;exitDy=0;entryX=0.5;entryY=0;entryDx=0;entryDy=0;" edge="1" parent="1" source="89t6GWdF_3kPurugmedB-99" target="89t6GWdF_3kPurugmedB-109">
          <mxGeometry relative="1" as="geometry" />
        </mxCell>
        <mxCell id="89t6GWdF_3kPurugmedB-99" value="&lt;div&gt;进入&lt;span style=&quot;background-color: transparent; color: light-dark(rgb(0, 0, 0), rgb(255, 255, 255));&quot;&gt;ChatController&lt;/span&gt;&lt;/div&gt;&lt;div&gt;add保存回复&lt;/div&gt;" style="rounded=0;whiteSpace=wrap;html=1;" vertex="1" parent="1">
          <mxGeometry x="1147" y="1020" width="146" height="40" as="geometry" />
        </mxCell>
        <mxCell id="89t6GWdF_3kPurugmedB-100" style="edgeStyle=orthogonalEdgeStyle;rounded=0;orthogonalLoop=1;jettySize=auto;html=1;exitX=0.5;exitY=1;exitDx=0;exitDy=0;entryX=0.5;entryY=0;entryDx=0;entryDy=0;" edge="1" parent="1" source="89t6GWdF_3kPurugmedB-101" target="89t6GWdF_3kPurugmedB-99">
          <mxGeometry relative="1" as="geometry" />
        </mxCell>
        <mxCell id="89t6GWdF_3kPurugmedB-101" value="返回答复" style="rounded=0;whiteSpace=wrap;html=1;" vertex="1" parent="1">
          <mxGeometry x="1147" y="960" width="146" height="40" as="geometry" />
        </mxCell>
        <mxCell id="89t6GWdF_3kPurugmedB-102" style="edgeStyle=orthogonalEdgeStyle;rounded=0;orthogonalLoop=1;jettySize=auto;html=1;exitX=1;exitY=0.25;exitDx=0;exitDy=0;entryX=0;entryY=0.25;entryDx=0;entryDy=0;" edge="1" parent="1" source="89t6GWdF_3kPurugmedB-105" target="89t6GWdF_3kPurugmedB-108">
          <mxGeometry relative="1" as="geometry" />
        </mxCell>
        <mxCell id="89t6GWdF_3kPurugmedB-103" value="提问ask" style="edgeLabel;html=1;align=center;verticalAlign=middle;resizable=0;points=[];" vertex="1" connectable="0" parent="89t6GWdF_3kPurugmedB-102">
          <mxGeometry x="-0.0843" y="2" relative="1" as="geometry">
            <mxPoint as="offset" />
          </mxGeometry>
        </mxCell>
        <mxCell id="89t6GWdF_3kPurugmedB-104" style="edgeStyle=orthogonalEdgeStyle;rounded=0;orthogonalLoop=1;jettySize=auto;html=1;exitX=0.5;exitY=1;exitDx=0;exitDy=0;entryX=0.5;entryY=0;entryDx=0;entryDy=0;" edge="1" parent="1" source="89t6GWdF_3kPurugmedB-105" target="89t6GWdF_3kPurugmedB-101">
          <mxGeometry relative="1" as="geometry" />
        </mxCell>
        <mxCell id="89t6GWdF_3kPurugmedB-105" value="&lt;div&gt;调用封装好的&lt;/div&gt;&lt;div&gt;百度PAPI调用工具类&lt;/div&gt;&lt;div&gt;BaiduUtil.qfChat(ask)&lt;/div&gt;" style="rounded=0;whiteSpace=wrap;html=1;" vertex="1" parent="1">
          <mxGeometry x="1140" y="890" width="160" height="50" as="geometry" />
        </mxCell>
        <mxCell id="89t6GWdF_3kPurugmedB-106" style="edgeStyle=orthogonalEdgeStyle;rounded=0;orthogonalLoop=1;jettySize=auto;html=1;exitX=0;exitY=0.75;exitDx=0;exitDy=0;entryX=1;entryY=0.75;entryDx=0;entryDy=0;" edge="1" parent="1" source="89t6GWdF_3kPurugmedB-108" target="89t6GWdF_3kPurugmedB-105">
          <mxGeometry relative="1" as="geometry" />
        </mxCell>
        <mxCell id="89t6GWdF_3kPurugmedB-107" value="回答res" style="edgeLabel;html=1;align=center;verticalAlign=middle;resizable=0;points=[];" vertex="1" connectable="0" parent="89t6GWdF_3kPurugmedB-106">
          <mxGeometry x="0.1342" y="1" relative="1" as="geometry">
            <mxPoint as="offset" />
          </mxGeometry>
        </mxCell>
        <mxCell id="89t6GWdF_3kPurugmedB-108" value="读取AK、SK获取token" style="rounded=0;whiteSpace=wrap;html=1;" vertex="1" parent="1">
          <mxGeometry x="1383" y="890" width="150" height="50" as="geometry" />
        </mxCell>
        <mxCell id="89t6GWdF_3kPurugmedB-109" value="页面显示回复消息" style="rounded=0;whiteSpace=wrap;html=1;" vertex="1" parent="1">
          <mxGeometry x="1147" y="1080" width="146" height="40" as="geometry" />
        </mxCell>
      </root>
    </mxGraphModel>
  </diagram>
</mxfile>
